<?xml version="1.0" encoding="UTF-8"?>
<svg xmlns="http://www.w3.org/2000/svg" viewBox="0 0 1070 700" aria-hidden="true" focusable="false">
  <g transform="translate(0,700) scale(1,-1)" fill="#ffffff">
    <path d="M440 583 c-36 -13 -61 -51 -89 -137 -16 -50 -32 -107 -36 -126 -4 -19 -16 -52 -26 -73 -10 -21 -15 -46 -12 -55 28 -79 119 -66 152 21 9 22 17 27 46 27 30 0 37 -5 55 -39 11 -22 25 -43 32 -48 16 -10 178 -15 236 -7 30 4 47 12 59 30 15 23 15 28 0 60 -13 25 -23 34 -42 34 -31 0 -32 11 0 48 33 39 45 74 45 130 0 91 -66 150 -157 139 -38 -4 -56 -13 -109 -52 -9 -6 -19 -3 -32 12 -30 35 -83 50 -122 36z m87 -38 c12 -8 25 -30 28 -48 4 -17 27 -95 51 -172 24 -77 44 -143 44 -147 0 -14 -80 -9 -85 4 -2 7 -9 32 -15 55 l-10 41 -63 -5 c-68 -6 -73 -10 -82 -65 -7 -37 -7 -38 -52 -38 -32 0 -44 4 -41 13 12 30 68 209 87 274 23 77 46 103 91 103 14 0 35 -7 47 -15z m260 -5 c22 -13 36 -32 44 -59 17 -57 -6 -113 -77 -184 l-55 -57 71 0 70 0 0 -35 0 -35 -83 0 -84 0 -15 55 -15 54 29 28 c41 40 88 113 88 138 0 27 -18 45 -45 45 -26 0 -45 -18 -45 -43 0 -13 -5 -17 -16 -13 -9 3 -24 6 -35 6 -32 0 -24 47 15 86 28 28 41 34 78 34 25 0 56 -8 75 -20z m-67 -108 c0 -20 -43 -82 -65 -95 -11 -6 -18 -1 -25 18 -16 42 -12 55 15 55 14 0 33 9 43 19 22 25 32 26 32 3z"/>
    <path d="M466 469 c-2 -8 -9 -32 -14 -54 -5 -22 -13 -48 -17 -57 -6 -16 -1 -18 40 -18 44 0 47 1 40 23 -3 12 -11 40 -17 62 -13 47 -25 65 -32 44z"/>
  </g>
</svg>
